<?xml version="1.0" encoding="UTF-8"?>
<svg id="Layer_1" data-name="Layer 1" xmlns="http://www.w3.org/2000/svg" viewBox="0 0 1080 504.84">
  <defs>
    <style>
      .cls-1 {
        fill: #fff;
      }
    </style>
  </defs>
  <polygon class="cls-1" points="344.47 11.77 55.05 11.77 29.04 11.77 29.04 37.78 29.04 481.44 55.05 481.44 55.05 37.78 344.47 37.78 344.47 11.77"/>
  <polygon class="cls-1" points="238.83 149.58 238.83 100.93 86.51 56.12 86.51 481.44 240.92 427.39 240.92 360.99 196.34 360.99 196.34 149.93 238.83 149.58"/>
  <g>
    <path class="cls-1" d="m349.97,253.47c-1.63-.69-3.33-1.29-5.05-1.86,7.17-3.79,12.92-8.89,17.21-15.34,4.76-7.14,7.14-15.56,7.14-25.26,0-14.46-5.87-26.1-17.59-34.92-11.73-8.82-29.23-13.23-52.51-13.23h-90.47v185.17h95.76c24.34,0,42.76-4.45,55.29-13.36,12.52-8.9,18.78-21.29,18.78-37.17,0-10.75-2.51-19.84-7.54-27.25-5.03-7.41-12.04-13-21.03-16.8Zm-56.08-58.33c10.4,0,18.38,1.81,23.94,5.42,5.55,3.62,8.33,9.04,8.33,16.27s-2.78,12.92-8.33,16.53c-5.55,3.62-13.54,5.42-23.94,5.42h-42.59v-43.65h42.59Zm32.67,115.2c-5.73,3.62-14.15,5.42-25.26,5.42h-49.99v-45.76h49.99c11.11,0,19.53,1.9,25.26,5.69,5.73,3.79,8.6,9.57,8.6,17.33s-2.87,13.71-8.6,17.33Z"/>
    <path class="cls-1" d="m472.44,162.87l-82.53,185.17h43.91l16.5-39.68h85.83l16.44,39.68h44.97l-82.8-185.17h-42.32Zm-8.59,112.95l29.47-70.87,29.36,70.87h-58.83Z"/>
    <rect class="cls-1" x="620.05" y="162.87" width="42.85" height="185.17"/>
    <path class="cls-1" d="m832.99,288.52c11.99-5.29,21.25-12.92,27.78-22.88,6.52-9.96,9.79-21.82,9.79-35.58,0-20.98-7.14-37.43-21.43-49.33-14.29-11.9-34.3-17.86-60.05-17.86h-79.09v185.17h42.85v-51.58h37.3c.68,0,1.33-.03,1.99-.04l35.57,51.62h46.29l-41.37-59.37c.12-.05.25-.1.37-.15Zm-15.61-82.27c6.52,5.65,9.79,13.58,9.79,23.81s-3.27,17.95-9.79,23.68c-6.53,5.73-16.4,8.6-29.63,8.6h-34.92v-64.54h34.92c13.23,0,23.1,2.82,29.63,8.46Z"/>
    <polygon class="cls-1" points="950.17 313.65 950.17 270.79 1036.14 270.79 1036.14 237.46 950.17 237.46 950.17 197.26 1047.52 197.26 1047.52 162.87 907.59 162.87 907.59 348.03 1050.96 348.03 1050.96 313.65 950.17 313.65"/>
  </g>
</svg>