<?xml version="1.0" encoding="UTF-8"?>
<svg id="Layer_1" data-name="Layer 1" xmlns="http://www.w3.org/2000/svg" xmlns:xlink="http://www.w3.org/1999/xlink" viewBox="0 0 1080 504.84">
  <defs>
    <style>
      .cls-1 {
        fill: url(#linear-gradient-2);
      }

      .cls-2 {
        fill: url(#linear-gradient);
      }

      .cls-3 {
        fill: #3d4a3d;
      }
    </style>
    <linearGradient id="linear-gradient" x1="34.69" y1="10.55" x2="224.86" y2="313.56" gradientUnits="userSpaceOnUse">
      <stop offset="0" stop-color="#688066"/>
      <stop offset="1" stop-color="#3e4b3d"/>
    </linearGradient>
    <linearGradient id="linear-gradient-2" x1="32.2" y1="87.75" x2="207.73" y2="369.86" gradientUnits="userSpaceOnUse">
      <stop offset="0" stop-color="#688066"/>
      <stop offset="1" stop-color="#3d4a3d"/>
    </linearGradient>
  </defs>
  <polygon class="cls-2" points="344.45 17.99 55.03 17.99 29.02 17.99 29.02 44 29.02 487.65 55.03 487.65 55.03 44 344.45 44 344.45 17.99"/>
  <polygon class="cls-1" points="238.81 155.8 238.81 107.15 86.49 62.34 86.49 487.65 240.9 433.61 240.9 367.21 196.32 367.21 196.32 156.14 238.81 155.8"/>
  <g>
    <path class="cls-3" d="m349.95,259.69c-1.63-.69-3.33-1.29-5.05-1.86,7.17-3.79,12.92-8.89,17.21-15.34,4.76-7.14,7.14-15.56,7.14-25.26,0-14.46-5.87-26.1-17.59-34.92-11.73-8.82-29.23-13.23-52.51-13.23h-90.47v185.17h95.76c24.34,0,42.76-4.45,55.29-13.36,12.52-8.9,18.78-21.29,18.78-37.17,0-10.75-2.51-19.84-7.54-27.25-5.03-7.41-12.04-13-21.03-16.8Zm-56.08-58.33c10.4,0,18.38,1.81,23.94,5.42,5.55,3.62,8.33,9.04,8.33,16.27s-2.78,12.92-8.33,16.53c-5.55,3.62-13.54,5.42-23.94,5.42h-42.59v-43.65h42.59Zm32.67,115.2c-5.73,3.62-14.15,5.42-25.26,5.42h-49.99v-45.76h49.99c11.11,0,19.53,1.9,25.26,5.69,5.73,3.79,8.6,9.57,8.6,17.33s-2.87,13.71-8.6,17.33Z"/>
    <path class="cls-3" d="m472.42,169.09l-82.53,185.17h43.91l16.5-39.68h85.83l16.44,39.68h44.97l-82.8-185.17h-42.32Zm-8.59,112.95l29.47-70.87,29.36,70.87h-58.83Z"/>
    <rect class="cls-3" x="620.03" y="169.09" width="42.85" height="185.17"/>
    <path class="cls-3" d="m832.97,294.73c11.99-5.29,21.25-12.92,27.78-22.88,6.52-9.96,9.79-21.82,9.79-35.58,0-20.98-7.14-37.43-21.43-49.33-14.29-11.9-34.3-17.86-60.05-17.86h-79.09v185.17h42.85v-51.58h37.3c.68,0,1.33-.03,1.99-.04l35.57,51.62h46.29l-41.37-59.37c.12-.05.25-.1.37-.15Zm-15.61-82.27c6.52,5.65,9.79,13.58,9.79,23.81s-3.27,17.95-9.79,23.68c-6.53,5.73-16.4,8.6-29.63,8.6h-34.92v-64.54h34.92c13.23,0,23.1,2.82,29.63,8.46Z"/>
    <polygon class="cls-3" points="950.15 319.86 950.15 277.01 1036.12 277.01 1036.12 243.68 950.15 243.68 950.15 203.47 1047.5 203.47 1047.5 169.09 907.56 169.09 907.56 354.25 1050.94 354.25 1050.94 319.86 950.15 319.86"/>
  </g>
</svg>